PathFileType	4	(X/Y/Z)	C:/Users/opensim2020/Desktop/walking_exp_matlab/subject03_walking08_straight_02.trc	
DataRate	CameraRate	NumFrames	NumMarkers	Units	OrigDataRate	OrigDataStartFrame	OrigNumFrames	
100.00	100.00	5	51	mm	100.00	1827	314	
Frame#	Time	LFHD			RFHD			LBHD			RBHD			C7			T10			CLAV			STRN			RBAK			LSHO			LUPA			LELB			LFRM			LWRA			LWRB			LFIN			RSHO			RUPA			RELB			RFRM			RWRA			RWRB			RFIN			LASI			RASI			LPSI			RPSI			LTHI			LKNE			LTIB			LANK			LHEE			LTOE			RTHI			RKNE			RTIB			RANK			RHEE			RTOE			*39			*40			*41			*42			*43			*44			*45			*46			*47			*48			*49			*50			
		X1	Y1	Z1	X2	Y2	Z2	X3	Y3	Z3	X4	Y4	Z4	X5	Y5	Z5	X6	Y6	Z6	X7	Y7	Z7	X8	Y8	Z8	X9	Y9	Z9	X10	Y10	Z10	X11	Y11	Z11	X12	Y12	Z12	X13	Y13	Z13	X14	Y14	Z14	X15	Y15	Z15	X16	Y16	Z16	X17	Y17	Z17	X18	Y18	Z18	X19	Y19	Z19	X20	Y20	Z20	X21	Y21	Z21	X22	Y22	Z22	X23	Y23	Z23	X24	Y24	Z24	X25	Y25	Z25	X26	Y26	Z26	X27	Y27	Z27	X28	Y28	Z28	X29	Y29	Z29	X30	Y30	Z30	X31	Y31	Z31	X32	Y32	Z32	X33	Y33	Z33	X34	Y34	Z34	X35	Y35	Z35	X36	Y36	Z36	X37	Y37	Z37	X38	Y38	Z38	X39	Y39	Z39	X40	Y40	Z40	X41	Y41	Z41	X42	Y42	Z42	X43	Y43	Z43	X44	Y44	Z44	X45	Y45	Z45	X46	Y46	Z46	X47	Y47	Z47	X48	Y48	Z48	X49	Y49	Z49	X50	Y50	Z50	X51	Y51	Z51	

275	2.740	1499.89844	-1009.95374	1599.29956	1370.10242	-979.90851	1599.16333	1526.11719	-878.26874	1577.15991	1398.15015	-853.75421	1575.93994	1476.59009	-817.15057	1405.95813	1477.24072	-803.79376	1085.83154	1465.14905	-938.09601	1330.89343	1472.78528	-993.40057	1171.45313	1392.14355	-762.11157	1218.32764	1623.46863	-906.84412	1368.36792	1695.45264	-942.19037	1176.33826	1704.40088	-981.18115	1059.42603	1688.64929	-1052.16846	951.52002	1642.65735	-1106.79712	852.24390	1696.53076	-1094.45630	845.43530	1674.64990	-1141.15405	778.86798	1309.06714	-875.47583	1345.36987	1249.47766	-869.44562	1118.52356	1238.57690	-881.12335	1005.64001	1238.77051	-893.95428	868.88568	1270.79150	-928.96594	773.99603	1234.68103	-888.60339	768.18683	1244.41602	-909.44141	696.53497	1597.15894	-971.26660	929.71802	1356.73828	-978.52374	929.59363	1539.57373	-811.00037	955.62842	1390.61438	-815.91095	957.01331	1635.01990	-862.06689	638.74530	1604.07568	-819.49969	463.94043	1607.22510	-699.22021	303.21436	1569.72632	-605.75610	111.14516	1534.48584	-555.04767	92.46533	1533.05725	-736.81451	33.54155	1317.07898	-965.18341	636.13409	1356.77307	-1026.48071	466.20508	1355.76465	-1032.50952	281.07376	1403.87268	-1075.46655	69.44390	1464.03345	-1043.07056	39.49208	1396.91663	-1217.83740	39.06052	1464.53735	-928.91870	1672.52100																																	 
276	2.750	1498.38062	-1018.20422	1600.54822	1368.52515	-988.44373	1600.32483	1524.28931	-886.52197	1578.60107	1396.32776	-862.20380	1577.22510	1474.80981	-825.63159	1407.22009	1476.17749	-812.81873	1086.97974	1463.62451	-946.57410	1332.37109	1471.43457	-1002.20013	1173.04431	1390.42444	-771.00867	1219.28247	1622.04883	-914.78937	1369.84302	1693.01782	-949.40594	1177.10815	1701.49719	-987.33679	1059.69067	1686.86511	-1055.91199	949.96478	1642.03284	-1108.46545	849.13831	1695.78687	-1095.47571	842.86768	1674.80981	-1140.63306	774.99237	1307.39661	-884.21594	1346.67676	1248.07629	-879.12195	1119.81738	1237.24316	-891.13745	1007.02100	1237.46265	-904.20239	870.29126	1269.52380	-939.38306	775.51080	1233.34692	-898.98785	769.55591	1243.21545	-919.77118	697.83472	1595.51941	-980.64520	930.26941	1355.42285	-988.34906	931.89349	1537.82263	-820.82751	956.05951	1389.18542	-825.36823	959.06000	1633.36169	-871.83105	638.99298	1604.07898	-829.21771	464.39072	1607.23083	-705.94073	305.44968	1570.23340	-608.87018	115.23121	1534.85449	-557.96466	98.13689	1533.16589	-737.23816	33.69667	1315.72217	-973.43835	638.03418	1356.24084	-1033.53809	467.51978	1355.59717	-1036.54468	281.82013	1404.38135	-1075.73523	70.16620	1464.18848	-1043.32849	39.63403	1396.78943	-1218.20349	38.75213	1462.78284	-937.42651	1673.77014																																	 
277	2.760	1496.82397	-1026.46362	1601.94714	1366.97290	-996.81921	1601.60632	1522.58362	-894.62720	1580.23035	1394.59473	-870.62061	1578.79675	1473.18799	-833.77698	1408.56104	1474.84814	-821.57196	1088.25635	1462.10107	-955.00403	1333.98987	1470.08643	-1010.95160	1174.76489	1388.56348	-779.83002	1220.48694	1620.43262	-922.90259	1371.49414	1690.61877	-956.53979	1178.22766	1698.57007	-993.28778	1060.23889	1685.16296	-1059.39417	948.78271	1641.51514	-1109.56519	846.03070	1695.29175	-1096.06641	840.75031	1675.22998	-1139.57043	771.52502	1305.88586	-892.66766	1348.40918	1246.60425	-888.67981	1121.46179	1236.01038	-901.39038	1008.67468	1236.03821	-914.45947	872.01239	1268.24084	-949.72095	777.18054	1231.78577	-909.47711	771.26129	1241.75830	-930.65063	699.53790	1593.79749	-990.08368	931.08704	1353.99731	-997.72144	934.29010	1536.66272	-830.00031	957.19342	1387.86755	-834.65906	961.17236	1632.53284	-881.85522	639.53430	1604.43079	-839.87518	464.76031	1607.34998	-713.36578	307.81186	1570.59448	-612.54504	119.72535	1535.07288	-561.68799	103.93135	1533.24084	-737.72986	33.77715	1314.07520	-982.05432	640.09094	1355.08154	-1039.56885	468.88339	1354.72156	-1039.12756	282.35068	1404.28857	-1075.60681	70.11387	1464.10388	-1043.28613	39.64742	1396.26575	-1218.12280	38.51431	1461.05505	-945.73157	1675.09766																																	 
278	2.770	1495.27673	-1034.70190	1603.44580	1365.38977	-1005.41638	1603.07410	1520.92944	-902.88019	1581.93921	1392.86060	-879.01202	1580.39404	1471.31763	-842.06812	1410.05481	1473.43298	-830.16040	1089.67761	1460.65161	-963.46082	1335.74036	1468.76501	-1019.51941	1176.50769	1386.60071	-788.68512	1221.93213	1618.98010	-930.80011	1373.39331	1688.27441	-963.45862	1179.59888	1695.72888	-999.16663	1061.13391	1683.60706	-1062.55847	947.91895	1641.22668	-1110.59961	843.54956	1694.94409	-1096.31689	839.00659	1675.94543	-1138.03821	768.38702	1304.26489	-901.47302	1350.17883	1245.13184	-898.25269	1123.29688	1234.68225	-911.63672	1010.68469	1234.51221	-925.01587	874.05249	1266.64697	-960.72888	779.40759	1230.14587	-920.38092	773.29175	1240.20325	-941.65869	701.56000	1592.06946	-999.35419	932.17700	1352.40332	-1007.33478	936.81879	1535.38318	-839.12714	958.30072	1386.63550	-843.89124	963.15082	1631.81885	-892.12006	640.13184	1604.92285	-851.10339	465.02966	1607.61609	-721.43390	310.21692	1570.76733	-616.83264	124.46867	1535.02771	-565.58453	110.58530	1533.45349	-738.33923	34.02341	1312.19934	-990.73676	642.15973	1353.43335	-1044.62451	470.08878	1353.65076	-1040.72864	282.71051	1404.21436	-1075.56445	70.04887	1463.78406	-1043.04285	39.59524	1396.43933	-1218.06909	38.42574	1459.35181	-954.03204	1676.58606																																	 
279	2.780	1493.76270	-1042.88843	1604.96362	1363.83105	-1013.73492	1604.46643	1519.16162	-910.98584	1583.61780	1391.06360	-887.53998	1581.71814	1469.48755	-850.32660	1411.52026	1472.43762	-838.09412	1091.64246	1459.18042	-971.82642	1337.42896	1467.54700	-1028.03662	1178.27881	1384.45520	-797.49341	1223.50781	1617.29529	-938.67255	1375.31104	1686.05237	-969.84033	1181.18506	1693.10449	-1004.86682	1062.26306	1682.38989	-1065.73950	947.49640	1641.20398	-1111.42480	841.52777	1694.72864	-1096.32617	837.71851	1676.80493	-1136.14587	765.65106	1302.67859	-910.17072	1352.14795	1243.51709	-907.94537	1125.32666	1233.16858	-921.78802	1012.77423	1232.85632	-935.92194	876.30792	1264.98792	-971.80164	781.73358	1228.29724	-931.64886	775.53772	1238.49561	-952.82324	703.72528	1590.26929	-1008.52814	933.44122	1350.89209	-1016.37933	939.33246	1533.81104	-848.27954	959.36053	1385.21033	-853.05695	964.99457	1631.40149	-902.73065	640.52423	1605.74939	-863.21222	465.24026	1607.96118	-730.21112	312.59860	1571.00171	-621.53613	129.52336	1534.86499	-570.48083	117.60596	1532.97388	-738.52258	33.54794	1310.35559	-999.01495	644.06085	1351.64124	-1049.13904	471.19754	1352.58386	-1042.37646	283.15039	1403.98206	-1074.81763	70.75854	1463.41528	-1042.81702	39.61402	1396.32361	-1217.96716	38.33508	1457.65247	-962.37726	1678.04346																																	 
